<?xml version="1.0" encoding="utf-8"?>
<!-- Generator: Adobe Illustrator 28.0.0, SVG Export Plug-In . SVG Version: 6.00 Build 0)  -->
<svg version="1.1" id="Слой_1" xmlns="http://www.w3.org/2000/svg" xmlns:xlink="http://www.w3.org/1999/xlink" x="0px" y="0px"
	 viewBox="0 0 1000 190.4527588" enable-background="new 0 0 1000 190.4527588" xml:space="preserve">
<radialGradient id="SVGID_1_" cx="272.1555176" cy="95.2280197" r="55.5478859" gradientTransform="matrix(1.7642601 0 0 1.7138022 -382.1300049 -67.9727097)" gradientUnits="userSpaceOnUse">
	<stop  offset="0" style="stop-color:#FEC700"/>
	<stop  offset="1" style="stop-color:#FFDB51"/>
</radialGradient>
<path fill-rule="evenodd" clip-rule="evenodd" fill="url(#SVGID_1_)" d="M98.0004044,190.4162445
	c53.3406296,0.768158,97.2149582-41.8462982,98.0245743-95.1904678
	c-0.8096161-53.343811-44.6839447-95.9476929-98.0245743-95.1835938C44.6565895-0.7219148,0.8344879,41.8819656,0.021164,95.2257767
	C0.8344879,148.5699463,44.6565895,191.1844025,98.0004044,190.4162445z"/>
<path fill-rule="evenodd" clip-rule="evenodd" d="M822.3727417,43.3373032
	c19.2390747,1.7243881,35.927002-13.0401745,36.6005859-32.3247719h-19.4800415
	c-1.9719238,7.8290806-6.6844482,11.78755-17.1205444,11.78755c-10.3908081,0-15.7804565-3.9584694-17.4626465-11.78755h-19.4797363
	C786.2505493,30.3916931,803.0845947,45.1107368,822.3727417,43.3373032z"/>
<polygon fill-rule="evenodd" clip-rule="evenodd" points="422.4340515,133.6693573 422.4340515,53.4803848 397.8933716,53.4803848 
	397.8933716,170.3569641 423.4463806,170.3569641 472.8322449,88.8349228 472.8322449,170.3569641 497.362854,170.3569641 
	497.362854,53.4803848 471.8199158,53.4803848 "/>
<path fill-rule="evenodd" clip-rule="evenodd" d="M314.3468323,146.8386688
	c-22.1642151,0-35.2534485-15.6332855-35.2534485-39.1517487v-12.066658
	c4.6664734-9.1378021,17.131134-16.3523941,35.2534485-16.3523941c19.1480408,0,33.9090881,8.8373566,33.9090881,31.019043
	C348.2559204,132.50354,336.5244751,146.8386688,314.3468323,146.8386688L314.3468323,146.8386688z M320.7482605,54.4442024
	L320.7482605,54.4442024c-18.4223938-0.8136787-35.7315369,8.9529114-44.5868835,25.1551704
	c1.2427368-26.4995384,6.635376-42.2863121,38.1854553-46.3702202l49.0712891-6.5408192l-2.0209351-26.1154575L310.308075,7.4557829
	c-44.0103455,5.8642244-56.4188995,38.8625908-56.4188995,90.7616501c0,45.3504868,21.1624603,74.4016647,60.4576569,74.4016647
	c38.2966003,0,59.1170044-28.7020416,59.1170044-62.3321838C375.4848022,79.8820114,351.2020569,54.1961479,320.7482605,54.4442024z
	"/>
<polygon fill-rule="evenodd" clip-rule="evenodd" points="975.4729004,53.4803848 975.4729004,97.2571487 927.7553101,97.2571487 
	927.7553101,53.4803848 903.2246704,53.4803848 903.2246704,170.3569641 927.7553101,170.3569641 927.7553101,121.3938141 
	975.4729004,121.3938141 975.4729004,170.3569641 1000,170.3569641 1000,53.4803848 "/>
<polygon fill-rule="evenodd" clip-rule="evenodd" points="797.50354,133.6693573 797.50354,53.4803848 772.9727173,53.4803848 
	772.9727173,170.3569641 798.515686,170.3569641 847.9121704,88.8349228 847.9121704,170.3569641 872.442749,170.3569641 
	872.442749,53.4803848 846.8998413,53.4803848 "/>
<path fill-rule="evenodd" clip-rule="evenodd" d="M541.4711304,124.9990768
	c-2.6945801,13.036644-6.3978882,18.614357-13.7554321,18.614357c-3.0786133,0.0980835-6.1082153-0.2371216-9.0924683-1.0088043
	v27.1277924c3.8009644,1.7309113,7.9372559,2.502594,12.0730591,2.2614288
	c11.7834473,0.2900391,22.4157715-7.1203766,26.2165527-18.2793274c3.0786133-9.1863251,5.0016479-18.7083893,5.7207642-28.3768845
	c1.637207-15.6299362,2.4539185-31.3022079,2.3594971-47.0439911h32.6107788v92.1123581h24.4821167V53.5364914h-77.5852661
	C545.0314331,77.3864594,544.019104,101.2505493,541.4711304,124.9990768z"/>
<path fill-rule="evenodd" clip-rule="evenodd" d="M691.7822266,147.8473053
	c-11.4484863,0-19.8181152-2.9355621-19.8181152-13.0821686c0-8.792366,7.0224609-12.697731,19.1444702-17.6051941
	l23.4244385-9.4730225l-0.2409668,31.6471252C708.3757935,145.2993622,700.1525269,148.3779907,691.7822266,147.8473053
	L691.7822266,147.8473053z M737.8138428,138.7093201L737.8138428,138.7093201l0.3352051-46.3631668
	c0.338562-29.3962784-18.1328735-41.4622269-45.0194702-41.4622269
	c-23.378418-1.8364182-43.7697144,15.7763672-45.3575439,39.1588058h23.5184326
	c1.347229-10.7748642,10.052063-14.3841858,21.8391113-14.3841858c12.0244751,0,20.1051636,3.6093216,21.3544312,15.6269302
	l-30.0628052,11.8323669c-20.4888916,8.125824-35.9755859,17.312149-35.9755859,36.5512238
	c0,19.913208,11.4449463,32.6598053,34.2931519,32.6598053c14.4780273,0.3491516,27.8013916-8.0310822,33.7176514-21.2598572
	c1.2037964,14.0454559,10.8098145,20.3002777,27.4168091,20.3002777h6.7334595v-22.5587006h-2.0209961
	C740.8436279,148.8105927,737.8138428,145.8753815,737.8138428,138.7093201z"/>
<radialGradient id="SVGID_00000118393187992425221050000006134362262121032870_" cx="272.1507263" cy="95.2263794" r="55.55439" gradientTransform="matrix(1.7642601 0 0 1.714155 -382.1300049 -68.0063934)" gradientUnits="userSpaceOnUse">
	<stop  offset="0" style="stop-color:#050007"/>
	<stop  offset="0.48" style="stop-color:#050007"/>
	<stop  offset="1" style="stop-color:#50504F"/>
</radialGradient>
<path fill-rule="evenodd" clip-rule="evenodd" fill="url(#SVGID_00000118393187992425221050000006134362262121032870_)" d="
	M140.1822662,166.1721344c-33.2779999,18.6628723-69.3581696,21.9826813-92.3985291,10.8237457
	c30.639019,17.7138672,68.3564301,17.9407501,99.2359161,0.6737671
	c30.5379333-16.7855225,49.3368225-49.0123749,49.0053253-83.832695
	C194.4856567,118.8072281,173.4177551,147.4632263,140.1822662,166.1721344L140.1822662,166.1721344z M152.1192474,19.2742081
	v0.0490456V19.2742081c-1.9858398-3.263176-4.7155151-6.0522938-7.9931488-8.0730772
	c12.164032,6.2513018,22.8552704,15.0055609,31.3614807,25.6858635c1.490448,1.8323593,2.8796234,3.7031784,4.1849976,5.6756248
	c3.5112305,6.0067749,5.1451111,12.8902092,4.8030243,19.8602715
	c-0.8586731,25.3508301-24.0001068,56.0842361-60.4613647,76.5275955
	c-36.457016,20.4398346-75.4173508,24.5756226-98.4506454,12.600174
	c-6.3453369-3.1726685-11.6404114-8.0312653-15.3437691-14.0906219l-0.1499624-0.2409973
	c-0.9632854-1.8778687-1.8219509-3.7522278-2.6350985-5.6750946c-5.3926373-12.5551758-7.8955927-26.1120987-7.3650799-39.7284851
	c0.199185,3.8538513,1.2917912,7.5991974,3.2287722,10.9183044c11.7834921,19.8152847,54.6354256,17.2147675,95.7105713-5.8187103
	C140.1367493,73.8261871,163.9027405,39.0999031,152.1192474,19.2742081L152.1192474,19.2742081z M110.4645462,7.0126009
	c-0.383728-0.5305128-0.7817459-1.061202-1.207283-1.486742c-5.5812378-4.5198574-12.8452225-6.3908553-19.9167328-5.1519918
	c-1.3403091,0.1014449-2.7956467,0.2445264-4.2303391,0.4814666C72.4119263,2.4472253,60.1993675,6.5311346,49.030014,12.7893171
	c-11.1067238,6.1569147-20.8694324,14.4780474-28.7154503,24.3912468c-0.8586636,1.0957832-1.6723404,2.2058525-2.5031319,3.3122215
	c-4.6629381,5.2915459-6.6348515,12.4120979-5.3785219,19.329937c0.1848936,0.5792084,0.4329491,1.2113419,0.7155838,1.7379723
	c6.7329454,11.3508949,34.0106964,8.3772392,60.8482704-6.7329445
	C100.8800278,39.7770271,117.1978455,18.3670254,110.4645462,7.0126009z"/>
</svg>
