<svg width="112" height="28" viewBox="0 0 112 28" fill="none" xmlns="http://www.w3.org/2000/svg">
<path d="M14.1831 19.6969C14.0684 19.319 13.9521 18.9412 13.8399 18.5625C13.5304 17.514 13.2536 16.4574 13.0481 15.3838C12.845 14.3231 12.7173 13.256 12.7517 12.1727C12.818 10.0781 13.6754 8.37768 15.3213 7.05916C16.0067 6.51019 16.7469 6.04555 17.5298 5.64578C19.1839 4.80245 20.9109 4.14319 22.7017 3.64531C22.999 3.5626 23.3011 3.49691 23.618 3.45312C23.5828 3.48151 23.5493 3.51313 23.5116 3.53746C22.538 4.14401 21.5512 4.73109 20.5931 5.36116C19.3984 6.14691 18.2831 7.03403 17.3193 8.09305C16.6994 8.7742 16.1418 9.50238 15.7373 10.3319C15.3188 11.1907 15.0019 12.0859 14.7915 13.0176C14.5335 14.1593 14.3837 15.3157 14.3288 16.4834C14.2789 17.5521 14.2428 18.6217 14.2003 19.6904L14.1822 19.6977L14.1831 19.6969Z" fill="#095052"/>
<path d="M21.2559 0.068115C20.8546 0.453289 20.4591 0.84495 20.0497 1.22202C19.0359 2.15779 17.9837 3.04977 16.8307 3.81768C15.8464 4.47288 14.8065 5.02024 13.6723 5.37946C12.6561 5.70139 11.6153 5.82383 10.5549 5.69652C9.45352 5.56516 8.43649 5.18404 7.52509 4.56208C6.88392 4.1242 6.25912 3.66118 5.65316 3.17627C4.60419 2.33699 3.63056 1.41501 2.6905 0.458154C2.57995 0.34544 2.47431 0.22705 2.36786 0.111092C2.34903 0.09082 2.33429 0.0664932 2.28516 0C2.39652 0.052708 2.46285 0.0802784 2.52672 0.114336C3.48316 0.615467 4.43386 1.12795 5.39767 1.61611C6.38195 2.11481 7.39489 2.55269 8.45614 2.87056C9.58782 3.20951 10.7441 3.38385 11.929 3.34007C12.8707 3.3052 13.7943 3.14383 14.7074 2.91759C16.6178 2.44484 18.3906 1.64854 20.0906 0.680339C20.4697 0.464641 20.8522 0.252999 21.2329 0.0397337C21.2403 0.0494644 21.2485 0.0583843 21.2559 0.068115Z" fill="#095052"/>
<path d="M0.0253849 3.42578C0.94743 3.71608 1.87275 3.99908 2.79152 4.29911C3.8929 4.65834 4.9738 5.07027 6.00803 5.5933C6.84082 6.01415 7.62448 6.50798 8.32788 7.12264C9.55782 8.19788 10.3374 9.52288 10.6223 11.1268C10.7648 11.9288 10.773 12.7356 10.7132 13.5441C10.6068 14.9753 10.2735 16.366 9.94351 17.7583C9.82641 18.2538 9.71095 18.7492 9.59303 19.2447C9.57092 19.3379 9.54226 19.4296 9.48085 19.522C9.47593 19.4693 9.46693 19.4166 9.46529 19.3639C9.45219 18.7727 9.44727 18.1808 9.42517 17.5896C9.38832 16.6247 9.33673 15.6613 9.21472 14.7012C9.09926 13.7939 8.9404 12.8962 8.6587 12.0237C8.33935 11.0336 7.91354 10.0938 7.26745 9.26502C6.71062 8.55143 6.08582 7.90029 5.39879 7.30671C4.03128 6.12524 2.53112 5.12379 1.02195 4.13288C0.800852 3.98773 0.577302 3.84745 0.355388 3.70392C0.235834 3.62688 0.117917 3.5466 0 3.46795C0.00900754 3.45416 0.0171962 3.43957 0.0262038 3.42578H0.0253849Z" fill="#095052"/>
<path d="M68.6588 19.8309C68.6023 19.6492 68.5793 0.638644 68.6285 0.249416C68.6457 0.240496 68.6661 0.222656 68.6858 0.222656C70.1409 0.230765 71.5969 0.224278 73.0512 0.256714C73.8946 0.275364 74.7241 0.422136 75.5225 0.704327C76.3422 0.993815 77.0653 1.43008 77.6409 2.08852C78.0086 2.50937 78.2526 2.99672 78.4434 3.51245C78.6784 4.14981 78.8357 4.8042 78.8234 5.48697C78.7931 7.15336 77.9767 8.35023 76.5387 9.16275C76.3578 9.26492 76.1522 9.32412 75.9328 9.41331C75.9688 9.43602 75.9876 9.45467 76.0106 9.46116C76.9645 9.74173 77.6647 10.3499 78.2076 11.1486C78.762 11.9644 79.0739 12.8742 79.232 13.8384C79.3319 14.4473 79.3507 15.0596 79.2844 15.6734C79.2 16.4608 78.9405 17.1849 78.5237 17.862C78.1208 18.5172 77.6139 19.054 76.9056 19.3913C76.3725 19.6452 75.8083 19.7781 75.2212 19.8154C74.9796 19.8309 74.7364 19.8292 74.494 19.8292C72.6295 19.83 70.7641 19.83 68.8995 19.83C68.8176 19.83 68.7349 19.83 68.6604 19.83L68.6588 19.8309ZM71.3316 19.2073C72.0186 19.2146 72.6606 19.1424 73.2903 18.9551C74.1869 18.6875 74.8207 18.1345 75.1958 17.2871C75.475 16.6554 75.6036 15.9897 75.6511 15.3069C75.7002 14.5949 75.6601 13.8854 75.5151 13.1856C75.3686 12.4761 75.1254 11.8046 74.6897 11.2103C74.2107 10.5559 73.5924 10.1099 72.7719 10.0061C72.3167 9.9485 71.8507 9.96634 71.3897 9.95256C71.3709 9.95256 71.3512 9.97202 71.3307 9.98256V19.2081L71.3316 19.2073ZM71.3266 9.22194C72.0464 9.24546 72.7433 9.3598 73.4262 9.14734C74.0535 8.95273 74.6005 8.62675 74.9993 8.09561C75.2736 7.73071 75.4644 7.32202 75.5643 6.87927C75.8992 5.39048 75.6609 3.9779 74.9362 2.64398C74.5546 1.94256 73.956 1.4763 73.2018 1.20059C72.6475 0.99787 72.0677 0.94354 71.4847 0.912726C71.4355 0.910293 71.3848 0.928944 71.3283 0.938675V9.22194H71.3266Z" fill="#095052"/>
<path d="M30.1094 19.7875C30.4533 19.2612 30.7768 18.7649 31.101 18.2687C32.7363 15.7663 34.3708 13.2622 36.011 10.7631C36.1076 10.6155 36.1043 10.5028 36.0314 10.3527C35.2109 8.6669 34.3896 6.98187 33.5822 5.28953C32.8198 3.69208 32.0747 2.08732 31.3229 0.485806C31.2885 0.412825 31.2632 0.336602 31.2271 0.246592C31.2779 0.236051 31.3123 0.222266 31.3467 0.222266C32.5594 0.222266 33.7714 0.22632 34.9841 0.219833C35.1421 0.219833 35.2101 0.28065 35.2715 0.411204C35.9282 1.81729 36.5899 3.22176 37.2499 4.62622C37.5881 5.34549 37.9255 6.06475 38.2645 6.78401C38.3013 6.86267 38.3431 6.9397 38.3955 7.04187C38.4454 6.977 38.4782 6.93889 38.5052 6.89835C39.9374 4.72921 41.3713 2.56088 42.7969 0.388499C42.8845 0.255512 42.973 0.214968 43.1261 0.219022C43.6412 0.231185 44.1562 0.228753 44.6721 0.231996C44.7466 0.231996 44.8212 0.231996 44.9448 0.231996C44.8875 0.331736 44.8523 0.399851 44.8105 0.463912C44.0784 1.59186 43.3447 2.71819 42.6143 3.84696C41.5825 5.44279 40.5516 7.03944 39.5255 8.63852C39.2758 9.02775 39.2881 8.91017 39.4821 9.3221C40.6498 11.8059 41.8184 14.2888 42.9861 16.7718C43.4233 17.7011 43.8614 18.6303 44.2987 19.5604C44.3306 19.6277 44.3577 19.6975 44.3962 19.7867C44.3266 19.798 44.2701 19.8151 44.2136 19.8151C43.0311 19.8167 41.8487 19.8134 40.6662 19.8199C40.5065 19.8207 40.4443 19.7477 40.3845 19.6196C39.6688 18.0838 38.9515 16.5488 38.2276 15.0162C37.869 14.2564 37.4988 13.5031 37.1328 12.7465C37.0984 12.6751 37.0591 12.6062 37.0083 12.5105C36.9477 12.5892 36.9052 12.6387 36.8691 12.693C35.396 14.9075 33.9237 17.1221 32.4522 19.3374C32.3735 19.4566 32.2966 19.5767 32.2237 19.6991C32.1778 19.7769 32.1205 19.8191 32.0239 19.8191C31.4327 19.8159 30.8414 19.8175 30.2502 19.8159C30.2142 19.8159 30.179 19.8021 30.1094 19.7875Z" fill="#095052"/>
<path d="M102.015 14.6941C102.049 14.6673 102.086 14.643 102.118 14.6138C103.028 13.7769 103.937 12.9401 104.845 12.1016C104.958 11.9962 105.075 11.9143 105.242 11.9159C105.863 11.9216 106.485 11.9208 107.106 11.9224C107.142 11.9224 107.177 11.9314 107.263 11.9419C106.182 12.9515 105.133 13.9302 104.067 14.926C105.512 16.5364 106.948 18.1363 108.408 19.7638C108.322 19.7816 108.268 19.8011 108.214 19.8019C107.911 19.8076 107.608 19.8108 107.305 19.8108C106.578 19.8124 105.85 19.8067 105.123 19.8157C104.956 19.8173 104.843 19.7678 104.73 19.6462C103.855 18.7015 102.974 17.7633 102.094 16.8235C102.065 16.7935 102.031 16.7683 101.966 16.714V19.7662C101.767 19.827 99.5589 19.8278 99.332 19.7694V0.238281H101.961C101.967 0.846451 101.962 1.44246 101.963 2.03846C101.964 2.64501 101.963 3.25156 101.963 3.85811V14.6787C101.981 14.6835 101.998 14.6892 102.016 14.6941H102.015Z" fill="#095052"/>
<path d="M67.2589 24.2508H64.8867V18.9954C64.7245 19.0408 64.6427 19.1503 64.5452 19.2338C64.1669 19.5565 63.7263 19.7455 63.2375 19.816C62.7617 19.8841 62.286 19.8541 61.8135 19.7601C60.5213 19.503 59.5894 18.7586 58.9073 17.672C58.5609 17.1206 58.3505 16.5279 58.33 15.8759C58.2981 14.8582 58.6739 13.9995 59.4052 13.2989C60.2068 12.531 61.1739 12.0817 62.2794 11.9204C62.7601 11.8498 63.2309 11.8766 63.6944 12.0185C64.0539 12.1288 64.3782 12.3023 64.6459 12.5683C64.7041 12.6267 64.7499 12.6972 64.8285 12.7499C64.9104 12.4791 64.8408 12.2123 64.8859 11.9609C65.0636 11.9025 67.0231 11.8977 67.2581 11.9552V24.25L67.2589 24.2508ZM61.2198 15.6878C61.1944 16.2311 61.2665 16.8011 61.4057 17.3639C61.5301 17.8683 61.6988 18.3556 62.01 18.7821C62.168 18.9986 62.3605 19.1762 62.6151 19.2752C62.9722 19.4138 63.3022 19.3173 63.6158 19.1438C64.0989 18.877 64.3913 18.4529 64.546 17.9437C64.6631 17.5577 64.7573 17.162 64.8171 16.7638C64.9497 15.8775 64.9555 14.9888 64.786 14.1041C64.6664 13.4813 64.3757 12.9648 63.8221 12.6177C63.0532 12.1361 62.2655 12.312 61.7832 13.0718C61.5801 13.3921 61.4556 13.7449 61.3672 14.1106C61.246 14.6166 61.2124 15.1307 61.2198 15.6861V15.6878Z" fill="#095052"/>
<path d="M54.6328 0.230469H57.2475V19.773C57.0747 19.8216 54.8424 19.8241 54.6328 19.773V0.230469Z" fill="#095052"/>
<path d="M92.3081 12.2904C92.3441 12.2832 92.3686 12.284 92.3858 12.2734C92.8985 11.9296 93.4839 11.8104 94.085 11.7658C94.6525 11.7236 95.2216 11.7317 95.7833 11.8412C96.3614 11.9539 96.8716 12.1948 97.2917 12.6164C97.6798 13.0057 97.8764 13.4662 97.8788 14.0079C97.8821 14.8245 97.8804 15.6402 97.8804 16.4568C97.8804 17.498 97.8804 18.5384 97.8804 19.5796C97.8804 19.6452 97.8804 19.7109 97.8804 19.7701C97.679 19.822 95.5156 19.8261 95.2805 19.7758C95.2764 19.7101 95.2674 19.6379 95.2674 19.5658C95.2756 18.2327 95.2928 16.9004 95.2904 15.5673C95.2887 14.8788 95.2707 14.1896 95.2265 13.5027C95.1749 12.7089 94.5387 12.2929 93.7632 12.4088C93.3202 12.4753 92.9484 12.6821 92.6561 13.0194C92.4096 13.3033 92.2892 13.6333 92.29 14.0095C92.2917 15.4546 92.29 16.9004 92.29 18.3454C92.29 18.75 92.2909 19.1538 92.2917 19.5585C92.2917 19.6315 92.2917 19.7053 92.2917 19.809C91.3958 19.809 90.5213 19.809 89.6328 19.809V11.9296H92.2728C92.2851 12.0545 92.2966 12.1688 92.3081 12.2888V12.2904Z" fill="#095052"/>
<path d="M85.5539 19.7766C85.5466 19.6736 85.5384 19.5649 85.5302 19.4425C85.49 19.4522 85.4589 19.4539 85.436 19.4668C84.9684 19.7409 84.4525 19.8536 83.9195 19.895C83.1997 19.9509 82.4979 19.8634 81.824 19.5974C81.1001 19.3119 80.5965 18.8019 80.3361 18.081C80.0585 17.3107 80.1412 16.1689 81.0428 15.4805C81.5398 15.101 82.0926 14.861 82.7067 14.7482C83.4961 14.6031 84.2748 14.6331 85.038 14.895C85.1944 14.9485 85.3443 15.0223 85.5089 15.0921C85.522 15.0661 85.5449 15.0426 85.5457 15.0183C85.5654 14.5025 85.6112 13.986 85.5318 13.4719C85.4335 12.8345 85.0208 12.4786 84.3715 12.4575C83.9555 12.4437 83.5559 12.5321 83.1686 12.6626C82.6748 12.8289 82.1892 13.0218 81.7003 13.2035C81.6307 13.2294 81.5611 13.2554 81.4653 13.2903C81.4023 13.1443 81.3458 13.0121 81.2811 12.8613C81.372 12.8159 81.4424 12.7753 81.5169 12.7429C82.4668 12.3326 83.4527 12.0439 84.4861 11.9474C85.3074 11.8704 86.1214 11.9109 86.8977 12.2385C87.2072 12.3691 87.4979 12.5248 87.7469 12.751C88.0343 13.0129 88.1874 13.3332 88.1866 13.7249C88.1849 15.6791 88.1866 17.6334 88.1866 19.5885C88.1866 19.6477 88.1809 19.7068 88.1776 19.7628C88.0073 19.8236 85.8184 19.8358 85.5547 19.7766H85.5539ZM85.5384 17.3115H85.54C85.54 16.9003 85.5326 16.4884 85.5433 16.0773C85.5482 15.8778 85.4729 15.7327 85.3197 15.6143C85.1085 15.4505 84.8743 15.3337 84.618 15.2567C84.1406 15.1131 83.7541 15.2502 83.4502 15.6305C83.3618 15.7416 83.2799 15.8608 83.2152 15.9865C82.9679 16.4681 82.8402 16.9839 82.841 17.5207C82.841 18.107 83.0736 18.6154 83.4928 19.0281C83.7418 19.273 84.048 19.4214 84.4141 19.3833C84.7359 19.3492 85.029 19.2333 85.2911 19.0435C85.4622 18.9195 85.5465 18.7638 85.5408 18.5465C85.5302 18.1353 85.5375 17.7234 85.5375 17.3123L85.5384 17.3115Z" fill="#095052"/>
<path d="M50.5103 15.152C50.5021 14.5665 50.5512 14.037 50.4693 13.5083C50.3441 12.6974 49.8175 12.4525 49.1231 12.4793C48.7039 12.4955 48.301 12.609 47.9079 12.7469C47.4797 12.8969 47.0555 13.0566 46.6289 13.2115C46.5601 13.2366 46.4888 13.2569 46.3955 13.2877C46.3455 13.1393 46.3013 13.0088 46.2522 12.8636C46.3447 12.8215 46.4168 12.7842 46.4921 12.755C47.3257 12.4338 48.1716 12.1476 49.0568 12C50.0214 11.8387 50.9738 11.8638 51.8917 12.2482C52.2463 12.3965 52.5509 12.6139 52.808 12.8961C53.0144 13.1223 53.1217 13.3826 53.1217 13.6915C53.1192 15.6685 53.1217 17.6446 53.1208 19.6216C53.1208 19.6727 53.1135 19.7238 53.1094 19.7716C52.9325 19.8195 50.7789 19.8276 50.5209 19.7797C50.5144 19.6784 50.5078 19.5697 50.4996 19.4327C50.4259 19.4594 50.3645 19.4748 50.3089 19.5024C49.6341 19.8324 48.9184 19.9703 48.1708 19.9103C47.2962 19.8397 46.4913 19.577 45.8395 18.9696C45.0116 18.1985 44.8609 17.2603 45.412 16.2823C45.6094 15.932 45.8698 15.6312 46.1924 15.3855C46.818 14.9071 47.5206 14.6443 48.319 14.667C48.5909 14.6743 48.8635 14.6881 49.1346 14.7133C49.4769 14.7457 49.802 14.8414 50.1115 14.9914C50.2245 15.0457 50.3449 15.0863 50.5103 15.152ZM50.5078 17.3065C50.5078 16.8954 50.5078 16.4843 50.5078 16.0731C50.5078 16.0585 50.5062 16.0431 50.5078 16.0285C50.5259 15.8801 50.4595 15.7707 50.3473 15.6782C50.1598 15.5234 49.9535 15.4025 49.7209 15.3247C49.1477 15.1341 48.685 15.2647 48.3034 15.7269C48.2609 15.7788 48.2199 15.8331 48.1839 15.8899C47.7466 16.5775 47.6803 17.3187 47.8891 18.0874C47.9947 18.4758 48.2019 18.8164 48.5164 19.0824C48.8578 19.371 49.2517 19.4789 49.6783 19.3281C49.9084 19.2462 50.1164 19.0986 50.3269 18.9688C50.4653 18.8837 50.5144 18.7491 50.5111 18.5845C50.5037 18.1588 50.5087 17.7322 50.5087 17.3065H50.5078Z" fill="#095052"/>
<path d="M111.936 19.7977H109.375V11.9653C109.523 11.9109 111.596 11.8939 111.929 11.9434C111.934 11.9482 111.94 11.9531 111.945 11.9588C111.95 11.9645 111.955 11.971 111.957 11.9774C111.963 11.9985 111.972 12.0204 111.972 12.0423C111.974 14.5723 111.974 17.1015 111.975 19.6315C111.975 19.6688 111.972 19.7061 111.968 19.7425C111.966 19.7555 111.954 19.7677 111.936 19.7977H111.936Z" fill="#095052"/>
<path d="M111.987 9.61716C111.983 10.3543 111.383 10.9268 110.626 10.9178C109.939 10.9089 109.315 10.3024 109.32 9.64554C109.325 8.9052 109.953 8.30838 110.718 8.31649C111.449 8.32379 111.991 8.88006 111.988 9.61797L111.987 9.61716Z" fill="#095052"/>
<path d="M102.208 25.184C102.257 25.2132 102.286 25.2335 102.318 25.2489C103.223 25.7022 103.264 26.7701 102.677 27.3969C102.377 27.7172 101.992 27.8673 101.577 27.9338C101.066 28.0157 100.546 28.0327 100.04 27.9054C99.4427 27.7546 98.9841 27.4188 98.7917 26.8099C98.5976 26.196 98.8776 25.5497 99.4558 25.2513C99.482 25.2375 99.5057 25.2197 99.5557 25.1881C99.4983 25.137 99.4525 25.0924 99.4025 25.0527C98.799 24.5767 98.7507 23.7098 99.2977 23.1698C99.5467 22.9241 99.8537 22.783 100.19 22.7043C100.797 22.5624 101.396 22.5867 101.972 22.83C102.446 23.0303 102.784 23.3587 102.853 23.8874C102.92 24.3975 102.748 24.8134 102.309 25.1086C102.28 25.1281 102.253 25.1508 102.208 25.184ZM100.887 25.5392C100.681 25.5814 100.492 25.6024 100.315 25.6608C99.9405 25.7841 99.7448 26.0549 99.7424 26.4101C99.7407 26.7499 99.9315 27.028 100.298 27.1488C100.71 27.2859 101.132 27.2737 101.545 27.1285C101.601 27.1091 101.654 27.0775 101.704 27.0442C101.954 26.8731 102.086 26.6347 102.061 26.3363C102.034 26.0355 101.863 25.8141 101.577 25.7127C101.351 25.6324 101.111 25.5943 100.887 25.5392ZM100.874 23.4057C100.669 23.3944 100.471 23.4333 100.287 23.5314C100.024 23.6709 99.8791 23.8858 99.8938 24.1834C99.9078 24.4704 100.095 24.6845 100.402 24.7713C100.673 24.8483 100.953 24.8791 101.231 24.8232C101.354 24.7988 101.479 24.7494 101.584 24.6821C102.034 24.3934 102.004 23.8031 101.532 23.5493C101.328 23.439 101.107 23.3992 100.874 23.4057Z" fill="#095052"/>
<path d="M92.849 25.9693H89.1944C89.2026 26.0488 89.1977 26.1072 89.2149 26.1583C89.3082 26.4502 89.5064 26.6602 89.7627 26.8232C90.3556 27.2011 91.2662 27.1403 91.7362 26.7599C91.8107 26.6991 91.8942 26.6489 91.9949 26.5791C92.1939 26.807 92.3839 27.0243 92.5837 27.2522C92.3684 27.506 92.1194 27.6665 91.8377 27.7857C91.3349 27.999 90.8084 28.0176 90.2753 27.9722C89.3123 27.8911 88.6433 27.3941 88.2323 26.5426C88.0218 26.1072 88.0112 25.6417 88.0832 25.1787C88.2298 24.234 88.916 23.5042 89.8544 23.2845C90.4874 23.1361 91.1073 23.1831 91.6871 23.4888C92.4044 23.8675 92.7786 24.4805 92.8761 25.2671C92.9039 25.4885 92.9498 25.7123 92.8499 25.9701L92.849 25.9693ZM89.1838 25.1844C89.4147 25.2403 91.6125 25.2403 91.8082 25.1901C91.8115 25.1698 91.8205 25.1471 91.8164 25.1276C91.71 24.6605 91.3898 24.1918 90.7355 24.1351C90.6676 24.1294 90.5996 24.1237 90.5316 24.1172C89.9748 24.0637 89.4188 24.4108 89.2321 24.9338C89.2034 25.0141 89.1993 25.1025 89.1838 25.1852V25.1844Z" fill="#095052"/>
<path d="M81.9098 27.9427H80.8068C80.8027 27.8527 80.7961 27.7732 80.7961 27.6937C80.7961 26.9299 80.797 26.166 80.7945 25.403C80.7945 25.2838 80.7871 25.1629 80.7667 25.0462C80.6823 24.5596 80.3687 24.2572 79.8774 24.1866C79.6497 24.1542 79.4237 24.1696 79.2034 24.241C78.7236 24.3958 78.4083 24.7867 78.3813 25.2919C78.3633 25.6357 78.3674 25.9803 78.3657 26.325C78.3633 26.7815 78.3657 27.238 78.3649 27.6954C78.3649 27.7756 78.3576 27.8551 78.3535 27.9411H77.2578V23.2768H78.3043V23.8331C78.3788 23.7804 78.4173 23.7601 78.4468 23.7317C78.7473 23.4301 79.1216 23.2768 79.5375 23.229C80.1681 23.1568 80.7593 23.2533 81.2727 23.6596C81.6183 23.9328 81.7927 24.2961 81.8639 24.7145C81.8942 24.8913 81.9147 25.0713 81.9163 25.2497C81.9229 26.0955 81.9221 26.942 81.9229 27.7878C81.9229 27.8316 81.9155 27.8762 81.9098 27.9435V27.9427Z" fill="#095052"/>
<path d="M69.5633 27.481C69.7033 27.1955 69.8344 26.9287 69.9719 26.649C70.1038 26.713 70.2086 26.7698 70.3183 26.8177C70.8842 27.0625 71.4721 27.1736 72.0887 27.0779C72.1984 27.0609 72.309 27.0188 72.4064 26.966C72.5587 26.8841 72.6251 26.7455 72.6177 26.5728C72.6103 26.4057 72.5047 26.3035 72.363 26.2622C72.0953 26.1852 71.8201 26.1316 71.5474 26.0733C71.3182 26.0246 71.0831 25.9978 70.8588 25.933C70.6581 25.8746 70.4551 25.8 70.2766 25.6929C69.5805 25.2753 69.4863 24.3225 70.0743 23.7622C70.3216 23.527 70.6205 23.3827 70.9497 23.3097C71.7865 23.1232 72.6038 23.1873 73.394 23.5303C73.4218 23.5425 73.4488 23.5562 73.4751 23.5716C73.4873 23.5789 73.4955 23.5927 73.5275 23.6252C73.4316 23.9009 73.2867 24.1668 73.1426 24.4385C73.0943 24.4247 73.0648 24.4207 73.0394 24.4069C72.6644 24.2066 72.2582 24.1287 71.839 24.1068C71.5802 24.0931 71.3247 24.1182 71.084 24.226C70.9013 24.3079 70.8006 24.4442 70.8055 24.6485C70.8096 24.8439 70.9325 24.9591 71.0987 25.0061C71.4107 25.0945 71.73 25.1578 72.0461 25.2299C72.2967 25.2875 72.5489 25.3353 72.7962 25.4043C73.0247 25.4675 73.2261 25.5883 73.4005 25.7489C73.6306 25.9597 73.7445 26.2216 73.7322 26.5298C73.7133 27.022 73.4906 27.4015 73.0632 27.6602C72.7815 27.8305 72.4777 27.944 72.146 27.9634C71.5245 27.9999 70.9038 28.0097 70.3003 27.8215C70.0481 27.7429 69.8016 27.6512 69.5625 27.481H69.5633Z" fill="#095052"/>
<path d="M108.309 25.5224C108.406 24.5866 108.501 23.667 108.597 22.7305H111.883C111.917 22.9818 111.9 23.2316 111.893 23.5105C111.067 23.5316 110.252 23.513 109.419 23.5243C109.382 23.9249 109.347 24.3068 109.308 24.7204C109.483 24.7245 109.631 24.7334 109.779 24.7309C110.152 24.7253 110.519 24.7528 110.879 24.8615C111.504 25.0496 111.937 25.5418 111.99 26.1192C112.064 26.9139 111.634 27.5326 111.09 27.7637C110.838 27.8707 110.581 27.9583 110.304 27.9713C109.758 27.9972 109.212 28.0021 108.688 27.8123C108.424 27.7166 108.182 27.5804 107.922 27.4199C108.034 27.1474 108.191 26.9131 108.33 26.6511C108.41 26.6974 108.475 26.733 108.538 26.7711C109.002 27.0541 109.506 27.1904 110.053 27.1604C110.292 27.1466 110.517 27.0842 110.707 26.9349C110.938 26.7541 111.049 26.5181 111.003 26.2254C110.958 25.9335 110.765 25.7673 110.494 25.6797C110.137 25.5637 109.764 25.5499 109.394 25.5345C109.114 25.5232 108.833 25.5329 108.553 25.5321C108.48 25.5321 108.405 25.5256 108.308 25.5216L108.309 25.5224Z" fill="#095052"/>
<path d="M86.7079 24.7747C86.6547 24.7172 86.6089 24.6693 86.5646 24.6191C86.1708 24.1747 85.5746 24.0287 84.9932 24.2355C84.4626 24.4236 84.1285 24.8923 84.1023 25.4737C84.0884 25.7859 84.122 26.0868 84.2726 26.3657C84.7107 27.1766 85.9128 27.3153 86.5393 26.6284C86.59 26.5733 86.6367 26.5149 86.6826 26.4606C86.8832 26.4995 87.2861 26.7176 87.5309 26.9244C87.4048 27.1977 87.2034 27.415 86.9511 27.5837C86.4263 27.9356 85.8367 28.0272 85.216 27.981C84.9204 27.9583 84.6288 27.9194 84.3602 27.7823C83.5004 27.3461 83.0247 26.6625 82.9813 25.6992C82.9665 25.3764 82.9813 25.0561 83.0992 24.7488C83.3653 24.0571 83.882 23.6225 84.5682 23.3768C85.1832 23.157 85.8121 23.127 86.4377 23.3411C86.8185 23.4716 87.1387 23.6914 87.3827 24.0117C87.4187 24.0595 87.4539 24.109 87.481 24.1625C87.5432 24.2866 87.5317 24.3255 87.4056 24.3952C87.1813 24.5201 86.9544 24.6393 86.7055 24.7739L86.7079 24.7747Z" fill="#095052"/>
<path d="M103.598 22.7266H107.694C107.707 22.9796 107.745 23.2196 107.639 23.4564C107.288 24.2356 106.943 25.0165 106.592 25.7958C106.297 26.4518 105.993 27.1038 105.706 27.7638C105.641 27.9155 105.557 27.9633 105.399 27.9568C105.15 27.9463 104.9 27.9536 104.614 27.9536C104.65 27.8368 104.669 27.7452 104.706 27.6608C104.941 27.1257 105.181 26.5929 105.419 26.0585C105.758 25.2987 106.098 24.5397 106.437 23.7799C106.467 23.7126 106.493 23.6429 106.534 23.5415C106.302 23.4953 106.085 23.5269 105.871 23.522C105.644 23.5172 105.416 23.5212 105.189 23.5212C104.97 23.5212 104.752 23.5212 104.517 23.5212C104.457 23.8196 104.516 24.1043 104.476 24.3938H103.598V22.7266Z" fill="#095052"/>
<path d="M96.7298 27.9508V23.5355C96.3605 23.4933 96.0068 23.5452 95.6342 23.5055C95.6063 23.2517 95.6211 23.0011 95.6211 22.723C96.3237 22.7067 97.014 22.7213 97.7239 22.7148C97.7297 22.8105 97.737 22.8827 97.737 22.9557C97.737 24.5264 97.737 26.0979 97.737 27.6686C97.737 27.7213 97.737 27.7732 97.7338 27.8259C97.728 27.9054 97.6846 27.95 97.6028 27.9508C97.3243 27.9516 97.0451 27.9508 96.729 27.9508H96.7298Z" fill="#095052"/>
<path d="M74.6982 24.4922C75.0487 24.639 75.4049 24.583 75.7734 24.4954C75.7808 24.566 75.7906 24.6154 75.7906 24.6641C75.7922 25.6891 75.7922 26.7132 75.7922 27.7382C75.7922 27.9166 75.7668 27.9531 75.5867 27.9571C75.2927 27.9636 74.9979 27.9588 74.7138 27.9588C74.6515 27.7706 74.6401 24.7557 74.6974 24.4922H74.6982Z" fill="#095052"/>
<path d="M74.5156 23.4687C74.5164 23.0787 74.8194 22.8038 75.2452 22.8087C75.662 22.8135 75.9544 23.0827 75.9486 23.4695C75.9413 23.9277 75.6236 24.1061 75.2387 24.1223C74.8489 24.1385 74.5148 23.8239 74.5156 23.4679V23.4687Z" fill="#095052"/>
</svg>
