<svg xmlns="http://www.w3.org/2000/svg" viewBox="0 0 64 64" width="64" height="64">
  <!-- White disc — clean, neutral, lets the mark be the eye-catcher. -->
  <rect width="64" height="64" rx="10" fill="#FFFFFF"/>
  <!-- Official Softy starburst from the brand kit (Logo Mark / Full Color).
       Original viewBox 237.6096 × 300, fill #11308C. Embedded verbatim so
       the proportions match the brand asset exactly; scaled to fill the
       favicon canvas at ~92% with a small inset for breathing room. -->
  <g transform="translate(8 2) scale(0.2)" fill="#11308C">
    <path d="M237.6096,38.436l-7.7408-7.7414-64.7368,72.4669,72.4776-64.7255Z"/>
    <path d="M206.8706,14.0583l-50.5587,81.7524,59.5288-75.468-8.9701-6.2845Z"/>
    <path d="M180.6076,3.6665l-34.2715,86.4494L190.5339,8.2984l-9.9263-4.6318Z"/>
    <path d="M163.5299,2.8378l-10.5683-2.8378-17.4504,86.2541L163.5299,2.8378Z"/>
    <path d="M136.7277,3.8675l-10.9051-.9568-1.62,81.4159L136.7277,3.8675Z"/>
    <path d="M111.7577,10.8062l-10.9051.9569,11.8509,72.6303-.9458-73.5871Z"/>
    <path d="M89.955,22.613l-10.5683,2.8269,22.0059,61.007-11.4376-63.8339Z"/>
    <path d="M72.1554,37.8578l-9.9269,4.6209,28.3887,47.9492-18.4619-52.5701Z"/>
    <path d="M58.6155,55.1328l-8.97,6.2845,31.0635,34.8149-22.0935-41.0994Z"/>
    <path d="M49.2511,73.2297l-7.7414,7.7414,30.4439,22.7027-22.7025-30.4441Z"/>
    <path d="M43.6193,91.1262l-6.2845,8.9588,27.269,12.4171-20.9845-21.3759Z"/>
    <path d="M41.0476,108.1138l-4.6209,9.9271,22.4958,4.4468-17.8748-14.3739Z"/>
    <path d="M40.9044,123.8407l-2.8269,10.5788,16.9725-1.1198-14.1456-9.4591Z"/>
    <path d="M42.6358,138.2123l-.946,10.9051,11.4491-4.4903-10.5031-6.4148Z"/>
    <path d="M46.7535,162.1698l6.4367-6.0563-7.3826-4.8495.9459,10.9058Z"/>
    <path d="M50.1333,163.129l2.8269,10.5683,2.2941-6.2731-5.121-4.2953Z"/>
    <path d="M0,261.5869l7.7414,7.7416,64.7259-72.4784L0,261.5869Z"/>
    <path d="M21.7736,279.6636l8.9701,6.2731,50.5585-81.7417-59.5286,75.4687Z"/>
    <path d="M91.284,209.8874l-44.1875,81.8182,9.916,4.6313,34.2715-86.4495Z"/>
    <path d="M102.1029,213.7462l-28.0193,83.4157,10.5681,2.838,17.4512-86.2538Z"/>
    <path d="M113.4227,215.6737l-12.5364,80.4585,10.9051.957,1.6313-81.4155Z"/>
    <path d="M125.8451,289.1827l10.9051-.9458-11.8404-72.6306.9353,73.5764Z"/>
    <path d="M147.6523,277.3941l10.5796-2.8373-22.0179-60.9965,11.4383,63.8338Z"/>
    <path d="M165.4642,262.1457l9.9263-4.632-28.3998-47.9382,18.4734,52.5702Z"/>
    <path d="M178.9868,244.8483l8.9596-6.2738-31.0533-34.8146,22.0937,41.0884Z"/>
    <path d="M188.3446,226.7604l7.7416-7.7416-30.433-22.6915,22.6914,30.433Z"/>
    <path d="M193.9824,208.8802l6.2843-8.9701-27.2687-12.4059,20.9844,21.3759Z"/>
    <path d="M196.5715,191.8836l4.6208-9.9271-22.4957-4.4468,17.8749,14.3739Z"/>
    <path d="M196.7095,176.1484l2.8275-10.5683-16.9839,1.1198,14.1564,9.4486Z"/>
    <path d="M184.4829,155.3822l10.4918,6.4148.957-10.9051-11.4488,4.4903Z"/>
    <path d="M190.8542,137.8298l-6.4261,6.0668,7.3831,4.8383-.957-10.9051Z"/>
    <path d="M187.4941,136.8766l-2.8268-10.5796-2.2943,6.2843,5.121,4.2953Z"/>
  </g>
</svg>
