<svg xmlns="http://www.w3.org/2000/svg" viewBox="0 0 1200 630" width="1200" height="630">
  <defs>
    <linearGradient id="bg" x1="0" y1="0" x2="1" y2="1">
      <stop offset="0" stop-color="#0E1014"/>
      <stop offset="1" stop-color="#0A0C10"/>
    </linearGradient>
    <radialGradient id="glow1" cx="0.85" cy="0.1" r="0.7">
      <stop offset="0" stop-color="#00D9A3" stop-opacity="0.35"/>
      <stop offset="1" stop-color="#00D9A3" stop-opacity="0"/>
    </radialGradient>
    <radialGradient id="glow2" cx="0.05" cy="1" r="0.7">
      <stop offset="0" stop-color="#2456E0" stop-opacity="0.32"/>
      <stop offset="1" stop-color="#2456E0" stop-opacity="0"/>
    </radialGradient>
    <linearGradient id="accentText" x1="0" y1="0" x2="1" y2="0">
      <stop offset="0" stop-color="#00D9A3"/>
      <stop offset="1" stop-color="#5BF5C9"/>
    </linearGradient>
    <pattern id="grid" x="0" y="0" width="64" height="64" patternUnits="userSpaceOnUse">
      <path d="M64 0H0V64" fill="none" stroke="rgba(245,242,236,0.05)" stroke-width="1"/>
    </pattern>
  </defs>

  <!-- background layers -->
  <rect width="1200" height="630" fill="url(#bg)"/>
  <rect width="1200" height="630" fill="url(#grid)" opacity="0.6"/>
  <rect width="1200" height="630" fill="url(#glow1)"/>
  <rect width="1200" height="630" fill="url(#glow2)"/>

  <!-- Softy starburst mark (stylised) -->
  <g transform="translate(80,80) scale(0.55)" opacity="0.95">
    <g fill="#F5F2EC">
      <path d="M237.6 38.4l-7.7-7.7-64.7 72.4 72.5-64.7Z"/>
      <path d="M206.9 14.1l-50.6 81.7 59.5-75.5-9-6.2Z"/>
      <path d="M180.6 3.7l-34.3 86.4 44.2-81.8-9.9-4.6Z"/>
      <path d="M163.5 2.8l-10.5-2.8-17.5 86.3 28-83.5Z"/>
      <path d="M136.7 3.9l-10.9-1-1.6 81.4 12.5-80.4Z"/>
      <path d="M111.8 10.8l-10.9 1 11.8 72.6-1-73.6Z"/>
      <path d="M89.9 22.6l-10.5 2.8 22 61.0-11.5-63.8Z"/>
      <path d="M72.2 37.9l-9.9 4.6 28.3 47.9-18.4-52.5Z"/>
      <path d="M58.6 55.1l-9 6.3 31 34.8-22-41.1Z"/>
      <path d="M49.3 73.2l-7.7 7.7 30.4 22.7-22.7-30.4Z"/>
      <path d="M43.6 91.1l-6.3 9 27.3 12.4-21-21.4Z"/>
      <path d="M41 108.1l-4.6 9.9 22.5 4.5-17.9-14.4Z"/>
    </g>
  </g>

  <!-- main copy -->
  <g font-family="Inter Tight, Inter, system-ui, sans-serif" fill="#F5F2EC">
    <text x="80" y="290" font-size="22" font-weight="600" letter-spacing="3" fill="#00D9A3">RASMIY IT-INTEGRATOR · MDH BO'YLAB</text>
    <text x="80" y="380" font-size="86" font-weight="600" letter-spacing="-3" fill="#F5F2EC">IT-bo'limingiz,</text>
    <text x="80" y="476" font-size="86" font-weight="600" letter-spacing="-3" fill="url(#accentText)">biz bilan.</text>
    <text x="80" y="560" font-size="26" font-weight="500" fill="rgba(245,242,236,0.7)">Microsoft 365 · Adobe · Autodesk · Kaspersky · Veeam · +15</text>
  </g>

  <!-- bottom brand strip -->
  <g transform="translate(80, 590)" font-family="ui-monospace, Menlo, monospace" font-size="18" fill="rgba(245,242,236,0.55)">
    <text x="0" y="0">softy.uz</text>
    <text x="1040" y="0" text-anchor="start">+998 (95) 640-04-04</text>
  </g>
</svg>
