<?xml version="1.0" encoding="UTF-8"?><svg id="Layer_2" xmlns="http://www.w3.org/2000/svg" viewBox="0 0 712.4628 300"><g id="Components"><g id="_05716f35-8447-40b3-8c8d-18d58384c98f_1"><path d="M317.462,171.8779c1.0763,14.6784,12.5259,24.5177,30.0745,24.5177,14.8524,0,25.5947-6.6211,25.5947-18.6137,0-13.2436-13.0696-16.1139-32.9343-19.6907-20.7669-3.5775-40.4464-10.1986-40.4464-35.0756,0-21.8327,17.8967-36.6963,44.5676-36.6963,28.639,0,46.5356,15.5701,47.4267,38.6636h-20.5817c-1.6095-12.7096-11.6341-21.2994-26.845-21.2994-14.1346,0-23.986,6.0886-23.986,17.8967,0,12.8844,12.8844,15.5701,32.575,18.9729,20.7564,3.762,40.9909,10.3838,40.8056,35.0756,0,22.5504-18.7877,38.1206-46.3504,38.1206-31.1395,0-49.9392-17.1797-50.6457-42.2411l20.7564.3585-.0113.0112Z" style="fill:#11308c; stroke-width:0px;"/><path d="M406.4173,166.8618c0-27.9212,18.7877-46.8942,46.7097-46.8942s46.7097,18.9729,46.7097,46.8942-18.7996,46.8942-46.7097,46.8942-46.7097-18.7877-46.7097-46.8942ZM480.1565,166.8618c0-17.7227-10.7423-30.4225-27.0295-30.4225s-26.845,12.7104-26.845,30.4225,10.5571,30.4218,26.845,30.4218,27.0295-12.7104,27.0295-30.4218Z" style="fill:#11308c; stroke-width:0px;"/><path d="M617.6132,195.6756v17.0049h-18.6144c-17.5382,0-24.877-8.2306-24.877-24.877v-49.7539h-33.2928v74.6309h-19.5054v-74.6309h-15.9286v-17.0049h15.9286v-9.1328c0-16.1139,7.8713-24.5185,25.594-24.5185h15.0377v17.0049h-12.3519c-6.2625,0-8.7743,2.6858-8.7743,8.9483v7.6981h33.2928v-25.5947h19.3314v25.5947h22.192v17.0049h-22.192v47.7859c0,7.1543,2.6858,9.8401,9.4816,9.8401h14.6784Z" style="fill:#11308c; stroke-width:0px;"/><path d="M620.827,121.0424h20.5816l25.5948,69.6186,24.877-69.6186h20.5824l-41.5234,105.9557c-5.7301,14.8524-9.6661,21.4734-23.0829,21.4734h-20.7565v-17.0049h13.6022c7.5136,0,9.3076-1.794,12.1666-9.3068l3.5775-8.9483-35.6193-92.1691Z" style="fill:#11308c; stroke-width:0px;"/><path d="M237.6096,38.436l-7.7408-7.7414-64.7368,72.4669,72.4776-64.7255Z" style="fill:#11308c; stroke-width:0px;"/><path d="M206.8706,14.0583l-50.5587,81.7524,59.5288-75.468-8.9701-6.2845Z" style="fill:#11308c; stroke-width:0px;"/><path d="M180.6076,3.6665l-34.2715,86.4494L190.5339,8.2984l-9.9263-4.6318Z" style="fill:#11308c; stroke-width:0px;"/><path d="M163.5299,2.8378l-10.5683-2.8378-17.4504,86.2541L163.5299,2.8378Z" style="fill:#11308c; stroke-width:0px;"/><path d="M136.7277,3.8675l-10.9051-.9568-1.62,81.4159L136.7277,3.8675Z" style="fill:#11308c; stroke-width:0px;"/><path d="M111.7577,10.8062l-10.9051.9569,11.8509,72.6303-.9458-73.5871Z" style="fill:#11308c; stroke-width:0px;"/><path d="M89.955,22.613l-10.5683,2.8269,22.0059,61.007-11.4376-63.8339Z" style="fill:#11308c; stroke-width:0px;"/><path d="M72.1554,37.8578l-9.9269,4.6209,28.3887,47.9492-18.4619-52.5701Z" style="fill:#11308c; stroke-width:0px;"/><path d="M58.6155,55.1328l-8.97,6.2845,31.0635,34.8149-22.0935-41.0994Z" style="fill:#11308c; stroke-width:0px;"/><path d="M49.2511,73.2297l-7.7414,7.7414,30.4439,22.7027-22.7025-30.4441Z" style="fill:#11308c; stroke-width:0px;"/><path d="M43.6193,91.1262l-6.2845,8.9588,27.269,12.4171-20.9845-21.3759Z" style="fill:#11308c; stroke-width:0px;"/><path d="M41.0476,108.1138l-4.6209,9.9271,22.4958,4.4468-17.8748-14.3739Z" style="fill:#11308c; stroke-width:0px;"/><path d="M40.9044,123.8407l-2.8269,10.5788,16.9725-1.1198-14.1456-9.4591Z" style="fill:#11308c; stroke-width:0px;"/><path d="M42.6358,138.2123l-.946,10.9051,11.4491-4.4903-10.5031-6.4148Z" style="fill:#11308c; stroke-width:0px;"/><path d="M46.7535,162.1698l6.4367-6.0563-7.3826-4.8495.9459,10.9058Z" style="fill:#11308c; stroke-width:0px;"/><path d="M50.1333,163.129l2.8269,10.5683,2.2941-6.2731-5.121-4.2953Z" style="fill:#11308c; stroke-width:0px;"/><path d="M0,261.5869l7.7414,7.7416,64.7259-72.4784L0,261.5869Z" style="fill:#11308c; stroke-width:0px;"/><path d="M21.7736,279.6636l8.9701,6.2731,50.5585-81.7417-59.5286,75.4687Z" style="fill:#11308c; stroke-width:0px;"/><path d="M91.284,209.8874l-44.1875,81.8182,9.916,4.6313,34.2715-86.4495Z" style="fill:#11308c; stroke-width:0px;"/><path d="M102.1029,213.7462l-28.0193,83.4157,10.5681,2.838,17.4512-86.2538Z" style="fill:#11308c; stroke-width:0px;"/><path d="M113.4227,215.6737l-12.5364,80.4585,10.9051.957,1.6313-81.4155Z" style="fill:#11308c; stroke-width:0px;"/><path d="M125.8451,289.1827l10.9051-.9458-11.8404-72.6306.9353,73.5764Z" style="fill:#11308c; stroke-width:0px;"/><path d="M147.6523,277.3941l10.5796-2.8373-22.0179-60.9965,11.4383,63.8338Z" style="fill:#11308c; stroke-width:0px;"/><path d="M165.4642,262.1457l9.9263-4.632-28.3998-47.9382,18.4734,52.5702Z" style="fill:#11308c; stroke-width:0px;"/><path d="M178.9868,244.8483l8.9596-6.2738-31.0533-34.8146,22.0937,41.0884Z" style="fill:#11308c; stroke-width:0px;"/><path d="M188.3446,226.7604l7.7416-7.7416-30.433-22.6915,22.6914,30.433Z" style="fill:#11308c; stroke-width:0px;"/><path d="M193.9824,208.8802l6.2843-8.9701-27.2687-12.4059,20.9844,21.3759Z" style="fill:#11308c; stroke-width:0px;"/><path d="M196.5715,191.8836l4.6208-9.9271-22.4957-4.4468,17.8749,14.3739Z" style="fill:#11308c; stroke-width:0px;"/><path d="M196.7095,176.1484l2.8275-10.5683-16.9839,1.1198,14.1564,9.4486Z" style="fill:#11308c; stroke-width:0px;"/><path d="M184.4829,155.3822l10.4918,6.4148.957-10.9051-11.4488,4.4903Z" style="fill:#11308c; stroke-width:0px;"/><path d="M190.8542,137.8298l-6.4261,6.0668,7.3831,4.8383-.957-10.9051Z" style="fill:#11308c; stroke-width:0px;"/><path d="M187.4941,136.8766l-2.8268-10.5796-2.2943,6.2843,5.121,4.2953Z" style="fill:#11308c; stroke-width:0px;"/></g></g></svg>