<svg xmlns="http://www.w3.org/2000/svg" viewBox="0 0 222.9163 29.8041">
    <defs>
        <style>.cls-1{fill:#00aeef;}.cls-2{fill:#121457;}</style>
    </defs>
    <g id="Layer_2" data-name="Layer 2">
        <g id="Layer_1-2" data-name="Layer 1">
            <circle class="cls-1" cx="14.9447" cy="14.6114" r="3.2482" transform="translate(-2.9572 3.8244) rotate(-13.2825)"/>
            <path class="cls-2"
                  d="M29.8741,14.7725c.0025-.0545.0152-.1059.0152-.1611a3.148,3.148,0,0,0-3.0387-3.2482h-.4735c-.011,0-.0211-.0032-.0321-.0032h0c-.011,0-.0211.0031-.0321.0032H23.3536a2.9347,2.9347,0,0,0-2.149.951,3.3618,3.3618,0,0,0-.89,2.2972A3.1935,3.1935,0,0,0,22.8029,17.8v1.1006l-.0238.01a4.26,4.26,0,0,1-4.2367,3.8072H11.3469A4.26,4.26,0,0,1,7.11,18.9105l-.0238-.01V10.9034l.0238-.01a4.26,4.26,0,0,1,4.2367-3.8072h3.37c.0865.0065.1691.0259.2572.0259h8.3821A3.4147,3.4147,0,0,0,26.7718,3.697,3.6664,3.6664,0,0,0,23.3563,0H11.3469A11.3387,11.3387,0,0,0,0,11.3461v7.112a11.3385,11.3385,0,0,0,11.3469,11.346h7.1955a11.3385,11.3385,0,0,0,11.3469-11.346s-.0008-1.5941-.0023-3.5591C29.8869,14.8557,29.8757,14.8154,29.8741,14.7725Z"/>
            <path class="cls-2" d="M73.937,3.78V26.0227a3.47,3.47,0,1,1-6.94,0V3.78a3.47,3.47,0,0,1,6.94,0Z"/>
            <path class="cls-2" d="M62.3561,4.1762a3.4148,3.4148,0,0,1-3.4155,3.4155H38.761a3.4155,3.4155,0,1,1,0-6.8309h20.18A3.4147,3.4147,0,0,1,62.3561,4.1762Z"/>
            <path class="cls-2"
                  d="M50.7035,14.6107a3.4162,3.4162,0,0,1-3.4163,3.4163H42.178v8.05a3.4159,3.4159,0,1,1-6.8318,0V14.6107a3.4153,3.4153,0,0,1,3.4155-3.4155h8.5255A3.4161,3.4161,0,0,1,50.7035,14.6107Z"/>
            <path class="cls-1"
                  d="M82.607,25.1669c-.674-1.0061-.2973-1.7508.9552-2.1237l.382-.1146a2.1058,2.1058,0,0,1,2.37.7789,5.9964,5.9964,0,0,0,4.2864,1.7037c2.1671,0,3.46-.8347,3.46-2.2351,0-3.6559-11.2639-1.2644-11.2639-8.319,0-3.2562,3.0216-5.457,7.3664-5.457,3.2338,0,6.1707,1.1808,7.4431,3.0676.7462,1.1069.4114,1.8933-.8974,2.1784l-.4715.1039c-1.2311.2679-1.69-.2-2.542-.885a4.9594,4.9594,0,0,0-3.3393-1.1937c-1.9619,0-3.1774.8-3.1774,2.0883,0,3.9849,11.3672,1.2108,11.3672,8.2954,0,3.3805-3.2422,5.5995-7.9091,5.5995C87.142,28.6545,84.001,27.2488,82.607,25.1669Z"/>
            <path class="cls-1"
                  d="M99.858,21.0031c0-5.3488,4.15-7.6664,8.3843-7.6664s8.3848,2.3176,8.3848,7.6664c0,5.4013-4.1311,7.7029-8.3848,7.7029C103.9981,28.706,99.858,26.4044,99.858,21.0031Zm12.4719-.0085c0-2.78-1.6838-4.4435-4.0973-4.4435-2.4033,0-4.0877,1.6458-4.0877,4.4435,0,2.8319,1.6844,4.4691,4.107,4.4691C110.6649,25.4637,112.33,23.8093,112.33,20.9946Z"/>
            <path class="cls-1"
                  d="M121.2266,28.43c-1.2183,0-1.889-.6139-1.889-1.7293V16.5511h-.68a1.492,1.492,0,0,1-1.7015-1.5043c0-.96.675-1.4786,1.702-1.4786h.68V13.04c0-3.3751,2.0792-5.08,6.1615-5.08.4157,0,.8829.0183,1.3051.0558,1.2884.1146,1.7963.6707,1.6533,1.5793a1.3066,1.3066,0,0,1-1.5194,1.3062c-.2582-.0076-.4329-.0183-.6654-.0183-1.7127,0-2.5817.7019-2.5817,2.2008v.4844h2.4135c1.2183,0,1.889.5185,1.889,1.4786,0,.9686-.6707,1.5043-1.889,1.5043H123.691V26.7c0,1.1154-.6707,1.7293-1.889,1.7293h-.5754Z"/>
            <path class="cls-1"
                  d="M131.4747,22.51V16.56h-.6937a1.411,1.411,0,0,1-1.5848-1.5043,1.3244,1.3244,0,0,1,1.453-1.4787h.8255V12.382c0-1.0372.5256-1.5761,1.7589-1.8161l.5-.0975c1.4481-.2829,2.076.2389,2.076,1.4775v1.6308h2.556c1.3126,0,1.889.5186,1.889,1.4787,0,.9686-.5764,1.5043-1.889,1.5043h-2.556V22.155c0,2.4547.7832,3.3462,2.7976,3.4126,1.0206.0332,1.6785.4436,1.7326,1.334.06.974-.427,1.6094-1.6249,1.7187-.2786.0246-.5572.0342-.8127.0342C133.4977,28.6545,131.4747,27.0366,131.4747,22.51Z"/>
            <path class="cls-1"
                  d="M146.8413,27.073l-4.8318-11.49c-.5052-1.2011.113-1.9972,1.492-1.9972H144.2a2.035,2.035,0,0,1,2.144,1.4154l3.3307,8.8386,3.1153-8.82a2.0313,2.0313,0,0,1,2.1226-1.4422h.0413a2.03,2.03,0,0,1,2.1188,1.4422l3.125,8.8194,3.3205-8.8376a2.0349,2.0349,0,0,1,2.1446-1.4154h.7173c1.3983,0,2.0058.8207,1.5017,2.0058l-4.879,11.4819A2.1063,2.1063,0,0,1,160.85,28.43h-.9734a2.0273,2.0273,0,0,1-2.1339-1.4411l-2.811-8.1625-2.811,8.1625a2.025,2.025,0,0,1-2.1339,1.4411h-.9825A2.1082,2.1082,0,0,1,146.8413,27.073Z"/>
            <path class="cls-1"
                  d="M168.67,21.0031c0-4.9856,3.0452-7.6664,7.091-7.6664,2.27,0,4.4354,1.0286,5.2771,2.8469V15.0907c0-.96.69-1.5129,1.889-1.5129h.5288c1.2182,0,1.8884.6129,1.8884,1.7283V26.6745c0,1.1154-.67,1.7293-1.8884,1.7293h-.5288c-1.19,0-1.889-.5454-1.889-1.48V25.9094c-.8224,1.7669-3.0071,2.7966-5.2578,2.7966C171.7431,28.706,168.67,25.9983,168.67,21.0031Zm12.5-.0085c0-2.7366-1.6651-4.4435-4.1161-4.4435-2.4226,0-4.0877,1.6973-4.0877,4.4435,0,2.7719,1.656,4.4691,4.1258,4.4691C179.5237,25.4637,181.17,23.7579,181.17,20.9946Z"/>
            <path class="cls-1"
                  d="M197.8188,15.21l-.0348.2871c-.1313,1.07-.8053,1.3779-1.9791,1.5644-2.1445.3332-3.2546,1.6447-3.2546,4.3652V26.7c0,1.1154-.6707,1.7293-1.889,1.7293h-.5288c-1.2182,0-1.8884-.6139-1.8884-1.7293V15.3061c0-1.1154.67-1.7294,1.8884-1.7294h.5288c1.2183,0,1.889.524,1.889,1.59v.659a3.843,3.843,0,0,1,3.7422-2.4C197.4486,13.4256,197.9565,14.0867,197.8188,15.21Z"/>
            <path class="cls-1"
                  d="M198.8779,21.0031c0-4.57,3.3934-7.6664,8.3184-7.6664,4.7172,0,7.7307,2.6476,8.027,6.8371.0814,1.15-.5872,1.7294-1.89,1.7294h-10.149c.0755,2.4333,1.7031,3.8455,4.3427,3.8455a5.1,5.1,0,0,0,3.3516-1.0618,2.2134,2.2134,0,0,1,2.121-.67l.39.0868c1.2943.2882,1.5124.95.6986,1.8933-1.3769,1.7165-3.7014,2.6744-6.7594,2.6744C202.2145,28.6717,198.8779,25.66,198.8779,21.0031Zm12.3676-1.6779c-.17-1.9844-1.6458-3.2487-3.9452-3.2487-2.2051,0-3.7754,1.1261-4.0406,3.2487h7.9858Z"/>
            <path class="cls-1"
                  d="M216.5962,16.445V13.8207H215.86c-.161,0-.2518-.0826-.2518-.23v-.0231c0-.1474.0908-.23.2518-.23h2.0511c.1612,0,.252.0831.252.23V13.59c0,.1478-.0908.23-.252.23h-.7308V16.445c0,.1474-.09.23-.2518.23h-.0807C216.6869,16.6755,216.5962,16.5924,216.5962,16.445Z"/>
            <path class="cls-1"
                  d="M218.2742,16.4266l.5643-2.8826a.2411.2411,0,0,1,.2722-.2073h.2571a.2773.2773,0,0,1,.2872.1889l.9373,2.5875.9373-2.5875a.277.277,0,0,1,.2873-.1889h.257a.241.241,0,0,1,.272.2073l.5645,2.8826c.03.1615-.0555.2489-.2268.2489h-.0807a.2437.2437,0,0,1-.272-.2073l-.4788-2.4123-.897,2.4307a.2767.2767,0,0,1-.2873.1889h-.1513a.2768.2768,0,0,1-.2872-.1889l-.8968-2.4307-.4788,2.4123a.2441.2441,0,0,1-.2722.2073h-.0805C218.33,16.6755,218.244,16.5881,218.2742,16.4266Z"/>
            <path class="cls-2" d="M73.937,3.78V26.0227a3.47,3.47,0,1,1-6.94,0V3.78a3.47,3.47,0,0,1,6.94,0Z"/>
        </g>
    </g>
</svg>