<svg width="128" height="128" viewBox="0 0 128 128" fill="none" xmlns="http://www.w3.org/2000/svg">
<g clip-path="url(#clip0_8424_10896)">
<path d="M64 2C61.74 2 59.48 2.5801 57.46 3.74029L14.64 28.2042C10.54 30.5446 8 34.9253 8 39.6461V88.3539C8 93.0747 10.54 97.4554 14.64 99.7958L57.46 124.26C59.48 125.42 61.74 126 64 126C66.26 126 68.52 125.42 70.54 124.26L113.36 99.7958C117.46 97.4554 120 93.0747 120 88.3539V39.6461C120 34.9253 117.46 30.5446 113.36 28.2042L70.54 3.74029C68.52 2.5801 66.26 2 64 2Z" fill="url(#paint0_linear_8424_10896)"/>
<path d="M64 8.00097C65.24 8.00097 66.4801 8.32102 67.5601 8.94112L110.38 33.4051C112.62 34.6853 114 37.0657 114 39.6461V88.3539C114 90.9343 112.62 93.3147 110.38 94.5949L67.5601 119.059C66.4801 119.679 65.24 119.999 64 119.999C62.76 119.999 61.5199 119.679 60.4399 119.059L17.62 94.5949C15.38 93.3147 14 90.9343 14 88.3539V39.6461C14 37.0657 15.38 34.6853 17.62 33.4051L60.4399 8.94112C61.5199 8.32102 62.76 8.00097 64 8.00097ZM64 2C61.74 2 59.48 2.5801 57.46 3.74029L14.64 28.2042C10.54 30.5446 8 34.9253 8 39.6461V88.3539C8 93.0747 10.54 97.4554 14.64 99.7958L57.46 124.26C59.48 125.42 61.74 126 64 126C66.26 126 68.52 125.42 70.54 124.26L113.36 99.7958C117.46 97.4554 120 93.0747 120 88.3539V39.6461C120 34.9253 117.46 30.5446 113.36 28.2042L70.54 3.74029C68.52 2.5801 66.26 2 64 2Z" fill="black"/>
<path fill-rule="evenodd" clip-rule="evenodd" d="M57.2087 64.8002L63.9436 56.3084C62.5696 49.6963 65.4446 42.6066 71.6083 39.2003C79.2083 34.8003 89.0083 37.6003 93.2083 45.2003C97.6083 52.8003 95.0083 62.6003 87.2083 66.8004C81.5928 70.0515 74.7761 69.3717 69.9049 65.7292L57.2087 64.8002ZM38.6958 66.9372C36.196 59.8223 35.2267 51.916 35.9993 43.7953C36.0883 42.9253 36.8235 42.4027 37.6167 42.5613C37.6377 42.5655 37.6589 42.5694 37.6801 42.5729L42.4602 43.3696L47.2089 44.26V58.5183L42.9144 61.3262C42.1638 61.817 41.8317 62.7473 42.1017 63.6024C43.3423 67.5311 45.0039 71.2808 47.0987 74.6374C49.2188 78.2352 51.9738 81.4134 55.1595 83.9619C55.8754 84.5346 56.8891 84.5472 57.6191 83.9925L61.6952 80.8946L73.7467 86.0124L72.8431 90.8316L72.8403 90.8472C72.8388 90.8552 72.8374 90.8633 72.8361 90.8714L72.0423 95.6341C71.8536 96.5178 71.1361 97.0027 70.2507 96.8483C63.0031 94.9292 56.5307 91.3035 51.1972 86.1605C51.1921 86.1556 51.187 86.1507 51.1819 86.1459L51.1698 86.1346C48.4788 83.6358 45.9893 80.7611 43.888 77.5136C41.7703 74.2407 40.0419 70.7831 38.6966 66.9394L38.6958 66.9372ZM32.0188 43.4011C32.3304 40.2849 35.1746 38.0144 38.3661 38.6321L43.1377 39.4274C43.151 39.4296 43.1642 39.4319 43.1775 39.4344L49.5775 40.6344C50.5234 40.8118 51.2089 41.6377 51.2089 42.6001V59.6001C51.2089 60.2752 50.8684 60.9047 50.3034 61.2741L46.3921 63.8315C47.4825 66.959 48.8562 69.9022 50.5049 72.5402C50.5101 72.5486 50.5153 72.557 50.5204 72.5655L50.5266 72.5758L50.5328 72.5861C52.1416 75.3212 54.1629 77.7781 56.4744 79.8383L60.1987 77.0078C60.77 76.5736 61.5302 76.4788 62.1906 76.7593L76.7906 82.9593C77.6551 83.3264 78.1477 84.2456 77.9746 85.1687L76.7783 91.5489L75.9817 96.329C75.9781 96.3502 75.9743 96.3713 75.97 96.3924C75.3534 99.4755 72.4998 101.378 69.4167 100.761C69.3775 100.753 69.3385 100.744 69.2999 100.734C61.3809 98.6504 54.2816 94.687 48.4342 89.0529C45.5304 86.3546 42.8248 83.2336 40.5297 79.6867C38.2476 76.1598 36.3761 72.4177 34.9214 68.2616C32.2222 60.5785 31.1915 52.0874 32.0179 43.4105L32.0188 43.4011ZM72.0085 48.8003C72.2085 44.6003 76.2085 41.2003 80.8085 42.2003C83.6085 42.8003 85.8085 45.0003 86.4085 47.4003C87.3 51.501 84.5358 55.2839 80.8081 56.0567V58.2001C80.8081 58.4001 80.6081 58.6001 80.4081 58.6001H78.0081C77.8081 58.6001 77.6081 58.4001 77.6081 58.2001V53.8001C77.6081 53.6001 77.8081 53.4001 78.0081 53.4001H79.4085V53.2003C82.0085 53.2003 84.0085 50.8003 83.4085 48.0003C83.2085 46.6003 82.0085 45.4003 80.4085 45.0003C77.8085 44.4003 75.4085 46.4003 75.2085 48.8003C75.2085 49.0003 75.0085 49.2003 74.8085 49.2003H72.4085C72.2085 49.2003 72.0085 49.0003 72.0085 48.8003ZM80.6081 64.0003H78.0081C77.8081 64.0003 77.6081 63.8003 77.6081 63.6003V61.2003C77.6081 61.0003 77.8081 60.8003 78.0081 60.8003H80.6081C80.8081 60.8003 81.0081 61.0003 81.0081 61.2003V63.6003C81.0081 64.0003 80.8081 64.0003 80.6081 64.0003Z" fill="black"/>
</g>
<defs>
<linearGradient id="paint0_linear_8424_10896" x1="21.1" y1="106.917" x2="106.914" y2="21.1169" gradientUnits="userSpaceOnUse">
<stop stop-color="#23D1AE"/>
<stop offset="1" stop-color="#7EFF33"/>
</linearGradient>
<clipPath id="clip0_8424_10896">
<rect width="128" height="128" fill="white"/>
</clipPath>
</defs>
</svg>
